<svg width="9" height="11" viewBox="0 0 9 11" fill="none" xmlns="http://www.w3.org/2000/svg">
<g clip-path="url(#clip0_1_929)">
<g clip-path="url(#clip1_1_929)">
<path fill-rule="evenodd" clip-rule="evenodd" d="M1.5 10.8799C1.10218 10.8799 0.720644 10.7219 0.43934 10.4406C0.158035 10.1593 1.23944e-08 9.77773 1.23944e-08 9.37991V4.37991C1.23944e-08 4.36291 1.23944e-08 4.34624 1.23944e-08 4.32991C-2.15345e-05 4.18728 0.0280505 4.04605 0.0826132 3.91428C0.137176 3.7825 0.217161 3.66277 0.318 3.56191L3.4395 0.440406C3.57879 0.301091 3.74416 0.19058 3.92617 0.115182C4.10817 0.0397836 4.30325 0.000976562 4.50025 0.000976562C4.69725 0.000976563 4.89233 0.0397836 5.07433 0.115182C5.25634 0.19058 5.42171 0.301091 5.561 0.440406L8.6825 3.56191C8.88585 3.76556 9.00004 4.04161 9 4.32941C9 4.34607 9 4.36274 9 4.37941V9.37941C9 9.77723 8.84196 10.1588 8.56066 10.4401C8.27936 10.7214 7.89782 10.8794 7.5 10.8794L1.5 10.8799ZM4.8535 1.14741L8 4.29391V9.37991C8 9.51251 7.94732 9.63969 7.85355 9.73346C7.75979 9.82723 7.63261 9.87991 7.5 9.87991H6V7.37991C6 6.98208 5.84196 6.60055 5.56066 6.31925C5.27936 6.03794 4.89782 5.87991 4.5 5.87991C4.10218 5.87991 3.72064 6.03794 3.43934 6.31925C3.15804 6.60055 3 6.98208 3 7.37991V9.87991H1.5C1.36739 9.87991 1.24021 9.82723 1.14645 9.73346C1.05268 9.63969 1 9.51251 1 9.37991V4.29391L4.1465 1.14741C4.24026 1.05367 4.36742 1.00101 4.5 1.00101C4.63258 1.00101 4.75974 1.05367 4.8535 1.14741Z" fill="black"/>
</g>
</g>
<defs>
<clipPath id="clip0_1_929">
<rect width="9" height="10.88" fill="white"/>
</clipPath>
<clipPath id="clip1_1_929">
<rect width="9" height="10.8785" fill="white" transform="translate(0 0.000976562)"/>
</clipPath>
</defs>
</svg>
